<svg width="18" height="18" viewBox="0 0 18 18" fill="none" xmlns="http://www.w3.org/2000/svg">
<path d="M9 0C6.61305 0 4.32387 0.948212 2.63604 2.63604C0.948212 4.32387 0 6.61305 0 9C0 11.3869 0.948212 13.6761 2.63604 15.364C4.32387 17.0518 6.61305 18 9 18C11.3869 18 13.6761 17.0518 15.364 15.364C17.0518 13.6761 18 11.3869 18 9C18 6.61305 17.0518 4.32387 15.364 2.63604C13.6761 0.948212 11.3869 0 9 0ZM2.295 4.86675C2.66062 6.36188 5.1435 7.72425 6.47662 8.4555C7.01662 8.75138 7.36875 8.94375 7.3125 9C7.2225 9.09 7.13025 9.17775 7.04025 9.26325C6.57225 9.70875 6.15487 10.1059 6.1875 10.6875C6.22687 11.4008 6.88275 11.6145 7.55325 11.8316C8.20238 12.0431 8.86725 12.2591 9 12.9375C9.09225 13.4066 8.91563 14.049 8.7525 14.6475C8.51062 15.5273 8.29575 16.3125 9 16.3125C10.6875 15.75 13.2727 12.7282 13.5 10.6875C13.6552 9.28913 11.25 8.4375 9.5625 7.875C9.02475 7.695 8.71313 7.96613 8.44875 8.1945C8.25525 8.36325 8.0865 8.50838 7.875 8.4375C7.37437 8.271 5.0625 6.1875 6.1875 5.625C7.065 5.18625 7.2585 5.43263 7.56788 5.82975C7.65563 5.94113 7.75125 6.06375 7.875 6.1875C8.56013 6.5295 8.61975 6.039 8.68838 5.47538C8.73225 5.11313 8.7795 4.7205 9 4.5C9.48825 4.01175 10.4231 3.61013 11.2815 3.24C12.0825 2.89575 12.8171 2.57963 13.0579 2.25C14.3958 3.05452 15.4643 4.23854 16.1279 5.65165C16.7914 7.06477 17.02 8.64322 16.7845 10.1865C16.549 11.7298 15.8602 13.1683 14.8054 14.3192C13.7507 15.4702 12.3777 16.2817 10.8608 16.6507C9.34384 17.0196 7.75149 16.9294 6.28595 16.3915C4.82042 15.8535 3.54785 14.8921 2.62987 13.6294C1.7119 12.3666 1.18995 10.8595 1.13032 9.29953C1.0707 7.73953 1.47609 6.19587 2.295 4.86675Z" fill="#B8B8B8"/>
</svg>
