<?xml version="1.0" encoding="UTF-8"?>
<svg id="Layer_2" data-name="Layer 2" xmlns="http://www.w3.org/2000/svg" viewBox="0 0 2435.05 2435.04">
  <defs>
    <style>
      .cls-1 {
        fill: #ff7852;
        stroke-width: 0px;
      }
    </style>
  </defs>
  <g id="Layer_1-2" data-name="Layer 1">
    <path class="cls-1" d="m2168.7,0h-17.31c-147.1,0-266.35,119.25-266.35,266.35h0c0,147.1-119.25,266.35-266.35,266.35h-667.52C425.85,532.7,0,958.56,0,1483.87h0c0,525.32,425.85,951.17,951.17,951.17h0c525.32,0,951.17-425.85,951.17-951.17v-667.51c0-147.1,119.25-266.35,266.35-266.35h0c147.1,0,266.35-119.25,266.35-266.35v-17.31c0-147.1-119.25-266.35-266.35-266.35ZM964.09,1894.63h-25.85c-219.71,0-397.83-178.11-397.83-397.83v-25.85c0-219.71,178.11-397.83,397.83-397.83h25.85c219.71,0,397.83,178.11,397.83,397.83v25.85c0,219.71-178.11,397.83-397.83,397.83Z"/>
  </g>
</svg>