<?xml version="1.0" encoding="UTF-8" standalone="no"?>
<svg
   xmlns:dc="http://purl.org/dc/elements/1.1/"
   xmlns:cc="http://creativecommons.org/ns#"
   xmlns:rdf="http://www.w3.org/1999/02/22-rdf-syntax-ns#"
   xmlns:svg="http://www.w3.org/2000/svg"
   xmlns="http://www.w3.org/2000/svg"
   id="svg6"
   xml:space="preserve"
   enable-background="new 0 0 200 200"
   viewBox="0 0 200 200"
   y="0px"
   x="0px"
   version="1.1"><metadata
     id="metadata12"><rdf:RDF><cc:Work
         rdf:about=""><dc:format>image/svg+xml</dc:format><dc:type
           rdf:resource="http://purl.org/dc/dcmitype/StillImage" /></cc:Work></rdf:RDF></metadata><defs
     id="defs10" /><rect
     id="rect2"
     fill="#000000"
     height="200"
     width="200" /><path
     id="path4"
     d="m56.816 40v48h15.211v-34.479h33.973c2.8732 0 5.577 0.67629 8.2812 1.8594 2.5352 1.3521 4.9015 3.0411 6.9297 5.2383 2.0282 2.3662 3.5493 4.9011 4.7324 7.9434 1.1831 3.0422 1.8594 6.4224 1.8594 9.8027s-0.50741 6.5925-1.5215 9.6348c-1.1831 3.2113-2.5345 5.7471-4.2246 8.1133-1.8592 2.3662-4.0566 4.0561-6.5918 5.4082s-5.4089 1.8594-8.4512 1.8594h-50.194v56.62h15.211v-43.098h35.832c5.2394 0 9.9709-1.0157 14.365-3.2129 4.3944-2.0282 8.114-4.9008 11.156-8.6192 3.0422-3.5492 5.4084-7.6055 7.2676-12.338 1.6901-4.5634 2.5351-9.2968 2.5351-14.367 0-4.7324-1.0149-9.294-2.7051-13.857-1.8592-4.5634-4.3942-8.6196-7.6055-12.338-3.2113-3.7183-7.0979-6.5919-11.492-8.7891-4.3944-2.1972-9.2957-3.3809-14.535-3.3809z"
     fill="#e94f23" /></svg>